<svg xmlns="http://www.w3.org/2000/svg" viewBox="0 0 600 400" width="100%" height="100%">
  <defs>
    <linearGradient id="webBg" x1="0%" y1="0%" x2="100%" y2="100%">
      <stop offset="0%" stop-color="#1e293b" />
      <stop offset="60%" stop-color="#0369a1" />
      <stop offset="100%" stop-color="#f59e0b" />
    </linearGradient>
  </defs>
  <rect width="600" height="400" fill="url(#webBg)" />
  <!-- Browser Window Mockup -->
  <rect x="80" y="50" width="440" height="250" rx="12" fill="#0f172a" stroke="#38bdf8" stroke-width="2" opacity="0.95"/>
  <!-- Browser Window Top Bar -->
  <path d="M 80 62 A 12 12 0 0 1 92 50 L 508 50 A 12 12 0 0 1 520 62 L 520 80 L 80 80 Z" fill="#1e293b" />
  <circle cx="102" cy="65" r="5" fill="#ef4444" />
  <circle cx="118" cy="65" r="5" fill="#f59e0b" />
  <circle cx="134" cy="65" r="5" fill="#10b981" />
  <!-- Search bar -->
  <rect x="170" y="58" width="260" height="14" rx="7" fill="#334155" />
  <!-- Inside Web Layout -->
  <!-- Hero banner inside browser -->
  <rect x="100" y="95" width="200" height="16" rx="4" fill="#38bdf8" />
  <rect x="100" y="120" width="150" height="8" rx="4" fill="#94a3b8" />
  <rect x="100" y="134" width="130" height="8" rx="4" fill="#64748b" />
  <rect x="100" y="155" width="70" height="22" rx="6" fill="#fbbf24" />
  
  <!-- Right Graphic inside browser -->
  <rect x="330" y="95" width="170" height="120" rx="10" fill="#1e293b" stroke="#0284c7" stroke-width="2"/>
  <circle cx="415" cy="155" r="30" fill="#0284c7" opacity="0.4" />
  <polygon points="415,135 440,170 390,170" fill="#38bdf8" />

  <!-- Mini cards inside browser -->
  <rect x="100" y="235" width="120" height="50" rx="6" fill="#1e293b" />
  <rect x="240" y="235" width="120" height="50" rx="6" fill="#1e293b" />
  <rect x="380" y="235" width="120" height="50" rx="6" fill="#1e293b" />

  <text x="300" y="340" fill="#ffffff" font-family="'Segoe UI', Roboto, sans-serif" font-weight="700" font-size="20" text-anchor="middle">CREATIVE AGENCY PORTFOLIO</text>
  <text x="300" y="365" fill="#38bdf8" font-family="'Segoe UI', Roboto, sans-serif" font-size="12" text-anchor="middle" letter-spacing="2">RESPONSIVE FRONT-END &amp; INTERACTIVE WEB</text>
</svg>
